Format : AVI
Format/Info : Audio Video Interleave
File size : 1.37 GiB
Duration : 1h 19mn
Overall bit rate : 2 457 Kbps
Writing application : VirtualDubMod 1.5.4.1 (build 2178/release)
Writing library : VirtualDub build 32842/release

Video
ID : 0
Format : MPEG-4 Visual
Format profile : Advanced Simple@L5
Format settings, BVOP : 2
Format settings, QPel : No
Format settings, GMC : No warppoints
Format settings, Matrix : Custom
Codec ID : XVID
Codec ID/Hint : XviD
Duration : 1h 19mn
Bit rate : 2 000 Kbps
Width : 720 pixels
Height : 304 pixels
Display aspect ratio : 2.35:1
Frame rate : 25.000 fps
Color space : YUV
Chroma subsampling : 4:2:0
Bit depth : 8 bits
Scan type : Progressive
Compression mode : Lossy
Bits/(Pixel*Frame) : 0.365
Stream size : 1.11 GiB (81%)
Writing library : XviD 58

Audio
ID : 1
Format : AC-3
Format/Info : Audio Coding 3
Mode extension : CM (complete main)
Codec ID : 2000
Duration : 1h 19mn
Bit rate mode : Constant
Bit rate : 448 Kbps
Channel(s) : 6 channels
Channel positions : Front: L C R, Side: L R, LFE
Sampling rate : 48.0 KHz
Bit depth : 16 bits
Compression mode : Lossy
Stream size : 255 MiB (18%)
Alignment : Split accross interleaves
Interleave, duration : 40 ms (1.00 video frame)









 
http://www.imdb.com/title/tt1622547/



Ratings: 6.6/10 from 5,895 users Metascore: 49/100
Reviews: 53 user | 134 critic | 37 from Metacritic.com

Two fledgling criminals kidnap a pizza delivery guy, strap a bomb to his chest, and inform him that he has mere hours to rob a bank or else...
Director:
Ruben Fleischer
Writers:
Michael Diliberti (screenplay), Michael Diliberti (story), and 1 more credit »
Stars:
Jesse Eisenberg, Danny McBride and Nick Swardson

















Source Used


Uspet.za.30.minut.2011.XviD.DVDRip............Thanks

iLLUMINATi /HIVE/CM8 ..............................Thanks


As title suggests yes its cam audio nothing can be done because fact is no line will show for this now and imo we gotta either get used to these R5s with cam audio or just wait longer


Filtered the vid and added a touch of bass to the audio ........sample is included so check it out



Enjoy





Greetz to IMAGiNE,Flawl3ss,BDK,Ez,CreWsaDe,TaRiQ786,ETRG,BHRG,iLLUMiNATi,ViSUALiSE,MiSTERE


